<?xml version="1.0" encoding="UTF-8"?>
<svg width="492px" height="148px" viewBox="0 0 492 148" version="1.1" xmlns="http://www.w3.org/2000/svg" xmlns:xlink="http://www.w3.org/1999/xlink">
    <title>Group 5</title>
    <g id="Page-1" stroke="none" stroke-width="1" fill="none" fill-rule="evenodd">
        <g id="Desktop-HD" transform="translate(-274.000000, -622.000000)" fill-rule="nonzero">
            <g id="Group-5" transform="translate(274.405063, 622.000000)">
                <path d="M151.844937,111 L151.844937,89.25 L121.994937,89.25 L121.994937,17.25 L95.5949367,17.25 L95.5949367,111 L151.844937,111 Z M187.394937,111 L187.394937,61.65 L188.294937,61.65 C188.294937,63.05 188.569937,64.525 189.119937,66.075 C189.669937,67.625 190.644937,69.6 192.044937,72 L192.044937,72 L216.194937,111 L242.294937,111 L242.294937,17.25 L215.894937,17.25 L215.894937,66.6 L214.994937,66.6 C214.994937,65.1 214.719937,63.575 214.169937,62.025 C213.619937,60.475 212.644937,58.55 211.244937,56.25 L211.244937,56.25 L186.944937,17.25 L160.994937,17.25 L160.994937,111 L187.394937,111 Z M291.894937,112.8 L292.628849,112.797115 C298.706882,112.749038 303.837244,112.1 308.019937,110.85 C312.369937,109.55 315.869937,107.375 318.519937,104.325 C321.169937,101.275 323.069937,97.225 324.219937,92.175 C325.369937,87.125 325.944937,80.9 325.944937,73.5 C325.944937,66 325.444937,59.725 324.444937,54.675 C323.444937,49.625 321.794937,45.55 319.494937,42.45 C317.194937,39.35 314.144937,37.125 310.344937,35.775 C306.544937,34.425 301.894937,33.75 296.394937,33.75 C290.494937,33.75 285.494937,34.4 281.394937,35.7 C280.448783,36 279.549227,36.3465976 278.696268,36.7397929 L278.393937,36.884 L278.394937,10.35 L256.044937,12.3 L256.044937,107.55 C262.044937,109.45 267.794937,110.8 273.294937,111.6 C278.794937,112.4 284.994937,112.8 291.894937,112.8 L291.894937,112.8 Z M295.794937,95.55 L278.394937,95.55 L278.394937,55.05 C278.394937,53.45 278.844937,52.375 279.744937,51.825 C280.644937,51.275 282.344937,51 284.844937,51 L284.844937,51 L302.244937,51 L302.244937,91.95 C302.244937,93.35 301.794937,94.3 300.894937,94.8 C299.994937,95.3 298.294937,95.55 295.794937,95.55 L295.794937,95.55 Z M348.094937,26.25 C352.994937,26.25 356.294937,25.4 357.994937,23.7 C359.694937,22 360.544937,18.75 360.544937,13.95 C360.544937,9.05 359.669937,5.725 357.919937,3.975 C356.169937,2.225 352.944937,1.35 348.244937,1.35 C343.344937,1.35 340.019937,2.225 338.269937,3.975 C336.519937,5.725 335.644937,9.05 335.644937,13.95 C335.644937,18.75 336.519937,22 338.269937,23.7 C340.019937,25.4 343.294937,26.25 348.094937,26.25 Z M359.194937,111 L359.194937,35.4 L336.844937,38.4 L336.844937,111 L359.194937,111 Z M396.644937,112.8 C398.744937,112.8 401.119937,112.65 403.769937,112.35 C406.419937,112.05 409.344937,111.55 412.544937,110.85 L412.544937,110.85 L413.744937,95.7 C411.744937,95.6 409.994937,95.475 408.494937,95.325 C406.994937,95.175 405.444937,95 403.844937,94.8 L403.844937,94.8 L403.844937,50.7 L415.844937,50.7 L415.844937,36 L403.844937,36 L403.844937,16.35 L381.644937,21.9 L381.643937,36 L372.494937,36 L372.494937,50.7 L381.643937,50.7 L381.644937,99.15 C381.644937,103.698387 382.792179,107.076119 385.086664,109.283195 L385.319937,109.5 C387.769937,111.7 391.544937,112.8 396.644937,112.8 Z M453.744937,113.25 C461.944937,113.25 468.594937,112.425 473.694937,110.775 C478.794937,109.125 482.494937,106.475 484.794937,102.825 C487.094937,99.175 488.244937,94.5 488.244937,88.8 C488.244937,84.8 487.644937,81.425 486.444937,78.675 C485.244937,75.925 483.194937,73.6 480.294937,71.7 C477.394937,69.8 473.394937,68.225 468.294937,66.975 C463.194937,65.725 456.744937,64.65 448.944937,63.75 L448.944937,63.75 L448.944937,52.05 C450.844937,51.55 453.119937,51.175 455.769937,50.925 C458.419937,50.675 461.094937,50.55 463.794937,50.55 C467.094937,50.55 470.294937,50.75 473.394937,51.15 C476.494937,51.55 479.294937,52.1 481.794937,52.8 L481.794937,52.8 L484.494937,37.05 C480.094937,35.95 475.519937,35.125 470.769937,34.575 C466.019937,34.025 461.094937,33.75 455.994937,33.75 C445.394937,33.75 437.594937,35.675 432.594937,39.525 C427.594937,43.375 425.094937,49.4 425.094937,57.6 C425.094937,61.8 425.619937,65.3 426.669937,68.1 C427.719937,70.9 429.644937,73.225 432.444937,75.075 C435.244937,76.925 439.219937,78.425 444.369937,79.575 C449.519937,80.725 456.244937,81.8 464.544937,82.8 L464.544937,82.8 L464.544937,94.8 C461.844937,95.4 459.469937,95.825 457.419937,96.075 C455.369937,96.325 453.294937,96.45 451.194937,96.45 C442.394937,96.45 434.294937,94.9 426.894937,91.8 L426.894937,91.8 L423.744937,108.6 C428.344937,110.1 433.219937,111.25 438.369937,112.05 C443.519937,112.85 448.644937,113.25 453.744937,113.25 Z" id="LNbits" fill="#1F2234"></path>
                <polygon id="Path" fill="#FF1EE6" points="31.4673815 1.71464627 7.10760662 78.8585043 26.9789129 78.8585043 2.69673524e-13 148 74.8401889 57.3517272 43.9349963 57.3517272 84.3037975 8.34401992e-14"></polygon>
            </g>
        </g>
    </g>
</svg>